<svg xmlns="http://www.w3.org/2000/svg" xmlns:xlink="http://www.w3.org/1999/xlink" width="150" zoomAndPan="magnify" viewBox="0 0 112.5 37.5" height="50" preserveAspectRatio="xMidYMid meet" version="1.0"><defs><g/><clipPath id="92e3416a97"><path d="M 87 0.0273438 L 98 0.0273438 L 98 14 L 87 14 Z M 87 0.0273438 " clip-rule="nonzero"/></clipPath><clipPath id="74e42ddaff"><rect x="0" width="110" y="0" height="19"/></clipPath><clipPath id="45c5df0190"><path d="M 0.046875 3 L 3 3 L 3 10 L 0.046875 10 Z M 0.046875 3 " clip-rule="nonzero"/></clipPath><clipPath id="c0b74e8fe7"><rect x="0" width="104" y="0" height="14"/></clipPath></defs><g transform="matrix(1, 0, 0, 1, 1, 4)"><g clip-path="url(#74e42ddaff)"><g fill="#3b3f49" fill-opacity="1"><g transform="translate(0.418585, 13.161447)"><g><path d="M 4.375 -9.5625 L 4.375 -6.28125 L 6.5625 -6.28125 L 6.5625 -9.5625 L 10.109375 -9.5625 L 10.109375 0 L 6.5625 0 L 6.5625 -3.28125 L 4.375 -3.28125 L 4.375 0 L 0.8125 0 L 0.8125 -9.5625 Z M 4.375 -9.5625 "/></g></g></g><g fill="#3b3f49" fill-opacity="1"><g transform="translate(11.338541, 13.161447)"><g><path d="M 4.375 -9.5625 L 4.375 0 L 0.8125 0 L 0.8125 -9.5625 Z M 4.375 -9.5625 "/></g></g></g><g fill="#3b3f49" fill-opacity="1"><g transform="translate(16.525519, 13.161447)"><g><path d="M 6.015625 -3.140625 C 6.085938 -3.140625 6.148438 -3.140625 6.203125 -3.140625 C 6.253906 -3.140625 6.28125 -3.140625 6.28125 -3.140625 L 6.28125 -4.78125 L 9.5625 -4.78125 L 9.5625 -1.4375 C 9.5625 -1.4375 9.484375 -1.351562 9.328125 -1.1875 C 9.171875 -1.019531 8.925781 -0.828125 8.59375 -0.609375 C 8.269531 -0.390625 7.859375 -0.195312 7.359375 -0.03125 C 6.867188 0.125 6.28125 0.203125 5.59375 0.203125 C 4.875 0.203125 4.207031 0.078125 3.59375 -0.171875 C 2.988281 -0.429688 2.457031 -0.785156 2 -1.234375 C 1.539062 -1.679688 1.179688 -2.207031 0.921875 -2.8125 C 0.671875 -3.425781 0.546875 -4.082031 0.546875 -4.78125 C 0.546875 -5.476562 0.671875 -6.128906 0.921875 -6.734375 C 1.179688 -7.335938 1.539062 -7.863281 2 -8.3125 C 2.457031 -8.769531 2.988281 -9.125 3.59375 -9.375 C 4.207031 -9.632812 4.875 -9.765625 5.59375 -9.765625 C 6.238281 -9.765625 6.800781 -9.6875 7.28125 -9.53125 C 7.769531 -9.382812 8.171875 -9.210938 8.484375 -9.015625 C 8.796875 -8.816406 9.03125 -8.640625 9.1875 -8.484375 C 9.34375 -8.335938 9.421875 -8.265625 9.421875 -8.265625 L 7.78125 -5.671875 C 7.78125 -5.671875 7.695312 -5.734375 7.53125 -5.859375 C 7.375 -5.984375 7.160156 -6.109375 6.890625 -6.234375 C 6.617188 -6.359375 6.328125 -6.421875 6.015625 -6.421875 C 5.535156 -6.421875 5.140625 -6.265625 4.828125 -5.953125 C 4.523438 -5.648438 4.375 -5.257812 4.375 -4.78125 C 4.375 -4.300781 4.523438 -3.90625 4.828125 -3.59375 C 5.140625 -3.289062 5.535156 -3.140625 6.015625 -3.140625 Z M 6.015625 -3.140625 "/></g></g></g><g fill="#3b3f49" fill-opacity="1"><g transform="translate(26.626479, 13.161447)"><g><path d="M 4.375 -9.5625 L 4.375 0 L 0.8125 0 L 0.8125 -9.5625 Z M 4.375 -9.5625 "/></g></g></g><g fill="#3b3f49" fill-opacity="1"><g transform="translate(31.813457, 13.161447)"><g><path d="M 4.375 -3.40625 L 4.375 -2.734375 L 8.46875 -2.734375 L 8.46875 0 L 0.8125 0 L 0.8125 -9.5625 L 8.1875 -9.5625 L 8.1875 -6.828125 L 4.375 -6.828125 L 4.375 -6.140625 L 7.921875 -6.140625 L 7.921875 -3.40625 Z M 4.375 -3.40625 "/></g></g></g><g fill="#3b3f49" fill-opacity="1"><g transform="translate(40.685919, 13.161447)"><g><path d="M 6.6875 0 L 4.375 -4.234375 L 4.375 0 L 0.8125 0 L 0.8125 -9.5625 L 4.78125 -9.5625 L 7.09375 -5.328125 L 7.09375 -9.5625 L 10.65625 -9.5625 L 10.65625 0 Z M 6.6875 0 "/></g></g></g><g fill="#3b3f49" fill-opacity="1"><g transform="translate(52.151874, 13.161447)"><g><path d="M 4.375 -9.5625 L 4.375 0 L 0.8125 0 L 0.8125 -9.5625 Z M 4.375 -9.5625 "/></g></g></g><g fill="#3b3f49" fill-opacity="1"><g transform="translate(57.338852, 13.161447)"><g><path d="M 8.609375 -6.5625 L 5.1875 -3 L 8.734375 -3 L 8.734375 0 L 0.6875 0 L 0.6875 -3 L 4.09375 -6.5625 L 0.953125 -6.5625 L 0.953125 -9.5625 L 8.609375 -9.5625 Z M 8.609375 -6.5625 "/></g></g></g><g fill="#3b3f49" fill-opacity="1"><g transform="translate(66.757314, 13.161447)"><g><path d="M 7.578125 -9.5625 C 7.578125 -9.550781 7.617188 -9.40625 7.703125 -9.125 C 7.785156 -8.851562 7.890625 -8.488281 8.015625 -8.03125 C 8.148438 -7.582031 8.300781 -7.078125 8.46875 -6.515625 C 8.632812 -5.953125 8.804688 -5.363281 8.984375 -4.75 C 9.160156 -4.144531 9.332031 -3.5625 9.5 -3 C 9.664062 -2.4375 9.8125 -1.929688 9.9375 -1.484375 C 10.070312 -1.035156 10.175781 -0.675781 10.25 -0.40625 C 10.332031 -0.132812 10.375 0 10.375 0 L 6.421875 0 L 6.140625 -1.359375 L 4.375 -1.359375 L 4.09375 0 L 0.140625 0 L 2.9375 -9.5625 Z M 4.78125 -3.546875 L 5.734375 -3.546875 L 5.25 -6.015625 Z M 4.78125 -3.546875 "/></g></g></g><g fill="#3b3f49" fill-opacity="1"><g transform="translate(77.267768, 13.161447)"><g><path d="M 0.546875 -4.78125 C 0.546875 -5.476562 0.671875 -6.128906 0.921875 -6.734375 C 1.179688 -7.335938 1.539062 -7.863281 2 -8.3125 C 2.457031 -8.769531 2.988281 -9.125 3.59375 -9.375 C 4.207031 -9.632812 4.875 -9.765625 5.59375 -9.765625 C 6.238281 -9.765625 6.800781 -9.6875 7.28125 -9.53125 C 7.769531 -9.382812 8.171875 -9.210938 8.484375 -9.015625 C 8.796875 -8.816406 9.03125 -8.640625 9.1875 -8.484375 C 9.34375 -8.335938 9.421875 -8.265625 9.421875 -8.265625 L 7.78125 -5.671875 C 7.78125 -5.671875 7.695312 -5.734375 7.53125 -5.859375 C 7.375 -5.984375 7.160156 -6.109375 6.890625 -6.234375 C 6.617188 -6.359375 6.328125 -6.421875 6.015625 -6.421875 C 5.535156 -6.421875 5.140625 -6.265625 4.828125 -5.953125 C 4.523438 -5.648438 4.375 -5.257812 4.375 -4.78125 C 4.375 -4.300781 4.523438 -3.90625 4.828125 -3.59375 C 5.140625 -3.289062 5.535156 -3.140625 6.015625 -3.140625 C 6.328125 -3.140625 6.617188 -3.203125 6.890625 -3.328125 C 7.160156 -3.453125 7.375 -3.578125 7.53125 -3.703125 C 7.695312 -3.828125 7.78125 -3.890625 7.78125 -3.890625 L 9.421875 -1.296875 C 9.421875 -1.296875 9.34375 -1.222656 9.1875 -1.078125 C 9.03125 -0.929688 8.800781 -0.757812 8.5 -0.5625 C 8.195312 -0.375 7.816406 -0.203125 7.359375 -0.046875 C 6.898438 0.0976562 6.359375 0.179688 5.734375 0.203125 L 5.46875 0.8125 C 5.757812 0.8125 6.03125 0.882812 6.28125 1.03125 C 6.53125 1.1875 6.726562 1.382812 6.875 1.625 C 7.019531 1.875 7.09375 2.148438 7.09375 2.453125 C 7.09375 2.960938 6.921875 3.382812 6.578125 3.71875 C 6.234375 4.0625 5.769531 4.234375 5.1875 4.234375 L 3.953125 4.234375 L 3.953125 2.875 L 4.921875 2.875 C 5.015625 2.875 5.101562 2.828125 5.1875 2.734375 C 5.28125 2.648438 5.328125 2.554688 5.328125 2.453125 C 5.328125 2.359375 5.28125 2.265625 5.1875 2.171875 C 5.101562 2.085938 5.015625 2.046875 4.921875 2.046875 L 4.09375 2.046875 L 4.84375 0.140625 C 4.007812 0.00390625 3.265625 -0.285156 2.609375 -0.734375 C 1.960938 -1.179688 1.457031 -1.75 1.09375 -2.4375 C 0.726562 -3.132812 0.546875 -3.914062 0.546875 -4.78125 Z M 0.546875 -4.78125 "/></g></g></g><g clip-path="url(#92e3416a97)"><g fill="#3b3f49" fill-opacity="1"><g transform="translate(86.959225, 13.161447)"><g><path d="M 7.578125 -9.5625 C 7.578125 -9.550781 7.617188 -9.40625 7.703125 -9.125 C 7.785156 -8.851562 7.890625 -8.488281 8.015625 -8.03125 C 8.148438 -7.582031 8.300781 -7.078125 8.46875 -6.515625 C 8.632812 -5.953125 8.804688 -5.363281 8.984375 -4.75 C 9.160156 -4.144531 9.332031 -3.5625 9.5 -3 C 9.664062 -2.4375 9.8125 -1.929688 9.9375 -1.484375 C 10.070312 -1.035156 10.175781 -0.675781 10.25 -0.40625 C 10.332031 -0.132812 10.375 0 10.375 0 L 6.421875 0 L 6.140625 -1.359375 L 4.375 -1.359375 L 4.09375 0 L 0.140625 0 L 2.9375 -9.5625 Z M 4.78125 -3.546875 L 5.734375 -3.546875 L 5.25 -6.015625 Z M 6.21875 -10.515625 C 5.9375 -10.515625 5.703125 -10.570312 5.515625 -10.6875 C 5.335938 -10.800781 5.1875 -10.914062 5.0625 -11.03125 C 4.945312 -11.144531 4.832031 -11.203125 4.71875 -11.203125 C 4.613281 -11.203125 4.515625 -11.148438 4.421875 -11.046875 C 4.335938 -10.953125 4.296875 -10.820312 4.296875 -10.65625 L 3.078125 -10.65625 L 3.078125 -11.609375 C 3.078125 -12.015625 3.195312 -12.34375 3.4375 -12.59375 C 3.675781 -12.84375 3.960938 -12.96875 4.296875 -12.96875 C 4.578125 -12.96875 4.804688 -12.910156 4.984375 -12.796875 C 5.160156 -12.679688 5.3125 -12.566406 5.4375 -12.453125 C 5.570312 -12.347656 5.691406 -12.296875 5.796875 -12.296875 C 5.898438 -12.296875 5.992188 -12.34375 6.078125 -12.4375 C 6.171875 -12.53125 6.21875 -12.664062 6.21875 -12.84375 L 7.4375 -12.84375 L 7.4375 -11.875 C 7.4375 -11.46875 7.316406 -11.140625 7.078125 -10.890625 C 6.847656 -10.640625 6.5625 -10.515625 6.21875 -10.515625 Z M 6.21875 -10.515625 "/></g></g></g></g><g fill="#3b3f49" fill-opacity="1"><g transform="translate(97.469679, 13.161447)"><g><path d="M 7.375 -4.78125 C 7.375 -5.257812 7.222656 -5.648438 6.921875 -5.953125 C 6.628906 -6.265625 6.28125 -6.421875 5.875 -6.421875 C 5.457031 -6.421875 5.101562 -6.265625 4.8125 -5.953125 C 4.519531 -5.648438 4.375 -5.257812 4.375 -4.78125 C 4.375 -4.300781 4.519531 -3.90625 4.8125 -3.59375 C 5.101562 -3.289062 5.457031 -3.140625 5.875 -3.140625 C 6.28125 -3.140625 6.628906 -3.289062 6.921875 -3.59375 C 7.222656 -3.90625 7.375 -4.300781 7.375 -4.78125 Z M 11.203125 -4.78125 C 11.203125 -4.082031 11.070312 -3.425781 10.8125 -2.8125 C 10.550781 -2.207031 10.179688 -1.679688 9.703125 -1.234375 C 9.234375 -0.785156 8.671875 -0.429688 8.015625 -0.171875 C 7.367188 0.078125 6.65625 0.203125 5.875 0.203125 C 5.09375 0.203125 4.375 0.078125 3.71875 -0.171875 C 3.070312 -0.429688 2.507812 -0.785156 2.03125 -1.234375 C 1.5625 -1.679688 1.195312 -2.207031 0.9375 -2.8125 C 0.675781 -3.425781 0.546875 -4.082031 0.546875 -4.78125 C 0.546875 -5.476562 0.675781 -6.128906 0.9375 -6.734375 C 1.195312 -7.335938 1.5625 -7.863281 2.03125 -8.3125 C 2.507812 -8.769531 3.070312 -9.125 3.71875 -9.375 C 4.375 -9.632812 5.09375 -9.765625 5.875 -9.765625 C 6.65625 -9.765625 7.367188 -9.632812 8.015625 -9.375 C 8.671875 -9.125 9.234375 -8.769531 9.703125 -8.3125 C 10.179688 -7.863281 10.550781 -7.335938 10.8125 -6.734375 C 11.070312 -6.128906 11.203125 -5.476562 11.203125 -4.78125 Z M 11.203125 -4.78125 "/></g></g></g></g></g><g transform="matrix(1, 0, 0, 1, 4, 19)"><g clip-path="url(#c0b74e8fe7)"><g clip-path="url(#45c5df0190)"><g fill="#1e90ff" fill-opacity="1"><g transform="translate(0.194079, 9.541152)"><g><path d="M 2.6875 -5.890625 L 2.6875 0 L 0.5 0 L 0.5 -5.890625 Z M 2.6875 -5.890625 "/></g></g></g></g><g fill="#1e90ff" fill-opacity="1"><g transform="translate(3.394461, 9.541152)"><g><path d="M 5.46875 0 L 3.703125 0 L 2.6875 -3.28125 L 2.6875 0 L 0.5 0 L 0.5 -5.890625 L 3.625 -5.890625 L 4.59375 -2.6875 L 5.5625 -5.890625 L 8.671875 -5.890625 L 8.671875 0 L 6.484375 0 L 6.484375 -3.28125 Z M 5.46875 0 "/></g></g></g><g fill="#1e90ff" fill-opacity="1"><g transform="translate(12.574512, 9.541152)"><g><path d="M 3.03125 -5.984375 C 3.644531 -5.984375 4.148438 -5.894531 4.546875 -5.71875 C 4.953125 -5.539062 5.25 -5.296875 5.4375 -4.984375 C 5.632812 -4.679688 5.734375 -4.328125 5.734375 -3.921875 C 5.734375 -3.515625 5.640625 -3.15625 5.453125 -2.84375 C 5.273438 -2.53125 5.015625 -2.285156 4.671875 -2.109375 C 4.335938 -1.941406 3.929688 -1.859375 3.453125 -1.859375 C 3.335938 -1.859375 3.222656 -1.859375 3.109375 -1.859375 C 2.992188 -1.867188 2.894531 -1.875 2.8125 -1.875 C 2.726562 -1.882812 2.6875 -1.890625 2.6875 -1.890625 L 2.6875 0 L 0.5 0 L 0.5 -5.890625 C 0.5 -5.890625 0.613281 -5.894531 0.84375 -5.90625 C 1.082031 -5.925781 1.394531 -5.941406 1.78125 -5.953125 C 2.164062 -5.972656 2.582031 -5.984375 3.03125 -5.984375 Z M 2.6875 -3.453125 L 3.03125 -3.453125 C 3.175781 -3.453125 3.296875 -3.5 3.390625 -3.59375 C 3.484375 -3.6875 3.53125 -3.796875 3.53125 -3.921875 C 3.53125 -4.046875 3.484375 -4.148438 3.390625 -4.234375 C 3.296875 -4.328125 3.175781 -4.375 3.03125 -4.375 L 2.6875 -4.375 Z M 2.6875 -3.453125 "/></g></g></g><g fill="#1e90ff" fill-opacity="1"><g transform="translate(18.554182, 9.541152)"><g><path d="M 2.6875 -2.109375 L 2.6875 -1.6875 L 5.21875 -1.6875 L 5.21875 0 L 0.5 0 L 0.5 -5.890625 L 5.046875 -5.890625 L 5.046875 -4.21875 L 2.6875 -4.21875 L 2.6875 -3.796875 L 4.890625 -3.796875 L 4.890625 -2.109375 Z M 2.6875 -2.109375 "/></g></g></g><g fill="#1e90ff" fill-opacity="1"><g transform="translate(24.028519, 9.541152)"><g><path d="M 6.3125 0 L 3.796875 0 L 2.78125 -1.9375 L 2.6875 -1.9375 L 2.6875 0 L 0.5 0 L 0.5 -5.890625 C 0.5 -5.890625 0.566406 -5.894531 0.703125 -5.90625 C 0.835938 -5.914062 1.019531 -5.925781 1.25 -5.9375 C 1.476562 -5.945312 1.738281 -5.957031 2.03125 -5.96875 C 2.320312 -5.976562 2.628906 -5.984375 2.953125 -5.984375 C 3.566406 -5.984375 4.070312 -5.894531 4.46875 -5.71875 C 4.863281 -5.539062 5.15625 -5.296875 5.34375 -4.984375 C 5.539062 -4.679688 5.640625 -4.328125 5.640625 -3.921875 C 5.640625 -3.617188 5.601562 -3.359375 5.53125 -3.140625 C 5.457031 -2.929688 5.367188 -2.757812 5.265625 -2.625 C 5.160156 -2.5 5.070312 -2.410156 5 -2.359375 C 4.925781 -2.304688 4.890625 -2.28125 4.890625 -2.28125 Z M 2.6875 -3.453125 L 2.953125 -3.453125 C 3.097656 -3.453125 3.21875 -3.5 3.3125 -3.59375 C 3.40625 -3.6875 3.453125 -3.796875 3.453125 -3.921875 C 3.453125 -4.046875 3.40625 -4.148438 3.3125 -4.234375 C 3.21875 -4.328125 3.097656 -4.375 2.953125 -4.375 L 2.6875 -4.375 Z M 2.6875 -3.453125 "/></g></g></g><g fill="#1e90ff" fill-opacity="1"><g transform="translate(30.176622, 9.541152)"><g><path d="M 5.46875 0 L 3.703125 0 L 2.6875 -3.28125 L 2.6875 0 L 0.5 0 L 0.5 -5.890625 L 3.625 -5.890625 L 4.59375 -2.6875 L 5.5625 -5.890625 L 8.671875 -5.890625 L 8.671875 0 L 6.484375 0 L 6.484375 -3.28125 Z M 5.46875 0 "/></g></g></g><g fill="#1e90ff" fill-opacity="1"><g transform="translate(39.356673, 9.541152)"><g><path d="M 2.6875 -2.109375 L 2.6875 -1.6875 L 5.21875 -1.6875 L 5.21875 0 L 0.5 0 L 0.5 -5.890625 L 5.046875 -5.890625 L 5.046875 -4.21875 L 2.6875 -4.21875 L 2.6875 -3.796875 L 4.890625 -3.796875 L 4.890625 -2.109375 Z M 2.6875 -2.109375 "/></g></g></g><g fill="#1e90ff" fill-opacity="1"><g transform="translate(44.831011, 9.541152)"><g><path d="M 4.546875 -3.109375 L 4.546875 -3.078125 C 4.546875 -3.078125 4.585938 -3.0625 4.671875 -3.03125 C 4.765625 -3.007812 4.878906 -2.96875 5.015625 -2.90625 C 5.148438 -2.851562 5.285156 -2.769531 5.421875 -2.65625 C 5.554688 -2.550781 5.664062 -2.410156 5.75 -2.234375 C 5.84375 -2.066406 5.890625 -1.851562 5.890625 -1.59375 C 5.890625 -1.289062 5.796875 -1.007812 5.609375 -0.75 C 5.429688 -0.5 5.128906 -0.296875 4.703125 -0.140625 C 4.285156 0.00390625 3.726562 0.078125 3.03125 0.078125 C 2.582031 0.078125 2.164062 0.0703125 1.78125 0.0625 C 1.394531 0.0507812 1.082031 0.0351562 0.84375 0.015625 C 0.613281 0.00390625 0.5 0 0.5 0 L 0.5 -5.890625 C 0.5 -5.890625 0.613281 -5.894531 0.84375 -5.90625 C 1.082031 -5.925781 1.390625 -5.941406 1.765625 -5.953125 C 2.148438 -5.972656 2.554688 -5.984375 2.984375 -5.984375 C 3.617188 -5.984375 4.128906 -5.90625 4.515625 -5.75 C 4.910156 -5.601562 5.195312 -5.40625 5.375 -5.15625 C 5.550781 -4.90625 5.640625 -4.632812 5.640625 -4.34375 C 5.640625 -4.082031 5.582031 -3.875 5.46875 -3.71875 C 5.363281 -3.5625 5.238281 -3.4375 5.09375 -3.34375 C 4.945312 -3.257812 4.816406 -3.195312 4.703125 -3.15625 C 4.597656 -3.125 4.546875 -3.109375 4.546875 -3.109375 Z M 2.6875 -4.46875 L 2.6875 -3.703125 L 2.984375 -3.703125 C 3.128906 -3.703125 3.242188 -3.738281 3.328125 -3.8125 C 3.410156 -3.882812 3.453125 -3.972656 3.453125 -4.078125 C 3.453125 -4.191406 3.410156 -4.285156 3.328125 -4.359375 C 3.242188 -4.429688 3.128906 -4.46875 2.984375 -4.46875 Z M 3.03125 -1.4375 C 3.195312 -1.4375 3.320312 -1.472656 3.40625 -1.546875 C 3.488281 -1.628906 3.53125 -1.734375 3.53125 -1.859375 C 3.53125 -1.984375 3.488281 -2.082031 3.40625 -2.15625 C 3.320312 -2.238281 3.195312 -2.28125 3.03125 -2.28125 L 2.6875 -2.28125 L 2.6875 -1.4375 C 2.6875 -1.4375 2.722656 -1.4375 2.796875 -1.4375 C 2.867188 -1.4375 2.945312 -1.4375 3.03125 -1.4375 Z M 3.03125 -1.4375 "/></g></g></g><g fill="#1e90ff" fill-opacity="1"><g transform="translate(50.979114, 9.541152)"><g><path d="M 2.6875 -2.109375 L 2.6875 -1.6875 L 5.21875 -1.6875 L 5.21875 0 L 0.5 0 L 0.5 -5.890625 L 5.046875 -5.890625 L 5.046875 -4.21875 L 2.6875 -4.21875 L 2.6875 -3.796875 L 4.890625 -3.796875 L 4.890625 -2.109375 Z M 2.6875 -2.109375 "/></g></g></g><g fill="#1e90ff" fill-opacity="1"><g transform="translate(56.453452, 9.541152)"><g><path d="M 4.671875 -5.890625 C 4.671875 -5.890625 4.695312 -5.800781 4.75 -5.625 C 4.800781 -5.457031 4.863281 -5.234375 4.9375 -4.953125 C 5.019531 -4.679688 5.113281 -4.367188 5.21875 -4.015625 C 5.320312 -3.671875 5.425781 -3.3125 5.53125 -2.9375 C 5.644531 -2.5625 5.753906 -2.195312 5.859375 -1.84375 C 5.960938 -1.5 6.050781 -1.1875 6.125 -0.90625 C 6.207031 -0.632812 6.273438 -0.414062 6.328125 -0.25 C 6.378906 -0.0820312 6.40625 0 6.40625 0 L 3.953125 0 L 3.796875 -0.84375 L 2.6875 -0.84375 L 2.53125 0 L 0.078125 0 L 1.8125 -5.890625 Z M 2.953125 -2.1875 L 3.53125 -2.1875 L 3.25 -3.703125 Z M 2.953125 -2.1875 "/></g></g></g><g fill="#1e90ff" fill-opacity="1"><g transform="translate(62.938443, 9.541152)"><g><path d="M 2.6875 -5.890625 L 2.6875 -1.9375 L 4.96875 -1.9375 L 4.96875 0 L 0.5 0 L 0.5 -5.890625 Z M 2.6875 -5.890625 "/></g></g></g><g fill="#1e90ff" fill-opacity="1"><g transform="translate(68.075903, 9.541152)"><g><path d="M 2.6875 -5.890625 L 2.6875 0 L 0.5 0 L 0.5 -5.890625 Z M 2.6875 -5.890625 "/></g></g></g><g fill="#1e90ff" fill-opacity="1"><g transform="translate(71.276285, 9.541152)"><g><path d="M 5.3125 -4.046875 L 3.203125 -1.859375 L 5.390625 -1.859375 L 5.390625 0 L 0.421875 0 L 0.421875 -1.859375 L 2.53125 -4.046875 L 0.59375 -4.046875 L 0.59375 -5.890625 L 5.3125 -5.890625 Z M 5.3125 -4.046875 "/></g></g></g><g fill="#1e90ff" fill-opacity="1"><g transform="translate(77.087511, 9.541152)"><g><path d="M 4.671875 -5.890625 C 4.671875 -5.890625 4.695312 -5.800781 4.75 -5.625 C 4.800781 -5.457031 4.863281 -5.234375 4.9375 -4.953125 C 5.019531 -4.679688 5.113281 -4.367188 5.21875 -4.015625 C 5.320312 -3.671875 5.425781 -3.3125 5.53125 -2.9375 C 5.644531 -2.5625 5.753906 -2.195312 5.859375 -1.84375 C 5.960938 -1.5 6.050781 -1.1875 6.125 -0.90625 C 6.207031 -0.632812 6.273438 -0.414062 6.328125 -0.25 C 6.378906 -0.0820312 6.40625 0 6.40625 0 L 3.953125 0 L 3.796875 -0.84375 L 2.6875 -0.84375 L 2.53125 0 L 0.078125 0 L 1.8125 -5.890625 Z M 2.953125 -2.1875 L 3.53125 -2.1875 L 3.25 -3.703125 Z M 2.953125 -2.1875 "/></g></g></g><g fill="#1e90ff" fill-opacity="1"><g transform="translate(83.572501, 9.541152)"><g><path d="M 0.34375 -2.953125 C 0.34375 -3.378906 0.421875 -3.78125 0.578125 -4.15625 C 0.734375 -4.53125 0.953125 -4.851562 1.234375 -5.125 C 1.515625 -5.40625 1.84375 -5.625 2.21875 -5.78125 C 2.59375 -5.9375 3.003906 -6.015625 3.453125 -6.015625 C 3.847656 -6.015625 4.191406 -5.96875 4.484375 -5.875 C 4.785156 -5.789062 5.035156 -5.6875 5.234375 -5.5625 C 5.429688 -5.4375 5.578125 -5.328125 5.671875 -5.234375 C 5.765625 -5.140625 5.8125 -5.09375 5.8125 -5.09375 L 4.796875 -3.5 C 4.796875 -3.5 4.742188 -3.535156 4.640625 -3.609375 C 4.546875 -3.691406 4.414062 -3.769531 4.25 -3.84375 C 4.082031 -3.914062 3.898438 -3.953125 3.703125 -3.953125 C 3.410156 -3.953125 3.164062 -3.859375 2.96875 -3.671875 C 2.78125 -3.484375 2.6875 -3.242188 2.6875 -2.953125 C 2.6875 -2.660156 2.78125 -2.414062 2.96875 -2.21875 C 3.164062 -2.03125 3.410156 -1.9375 3.703125 -1.9375 C 3.898438 -1.9375 4.082031 -1.972656 4.25 -2.046875 C 4.414062 -2.128906 4.546875 -2.207031 4.640625 -2.28125 C 4.742188 -2.363281 4.796875 -2.40625 4.796875 -2.40625 L 5.8125 -0.796875 C 5.8125 -0.796875 5.765625 -0.75 5.671875 -0.65625 C 5.578125 -0.570312 5.429688 -0.46875 5.234375 -0.34375 C 5.046875 -0.226562 4.8125 -0.125 4.53125 -0.03125 C 4.25 0.0625 3.914062 0.113281 3.53125 0.125 L 3.375 0.5 C 3.550781 0.5 3.710938 0.546875 3.859375 0.640625 C 4.015625 0.734375 4.140625 0.851562 4.234375 1 C 4.328125 1.15625 4.375 1.328125 4.375 1.515625 C 4.375 1.828125 4.265625 2.085938 4.046875 2.296875 C 3.835938 2.503906 3.554688 2.609375 3.203125 2.609375 L 2.4375 2.609375 L 2.4375 1.765625 L 3.03125 1.765625 C 3.09375 1.765625 3.148438 1.738281 3.203125 1.6875 C 3.253906 1.632812 3.28125 1.578125 3.28125 1.515625 C 3.28125 1.453125 3.253906 1.394531 3.203125 1.34375 C 3.148438 1.289062 3.09375 1.265625 3.03125 1.265625 L 2.53125 1.265625 L 2.984375 0.078125 C 2.472656 -0.00390625 2.015625 -0.179688 1.609375 -0.453125 C 1.210938 -0.734375 0.898438 -1.082031 0.671875 -1.5 C 0.453125 -1.925781 0.34375 -2.410156 0.34375 -2.953125 Z M 0.34375 -2.953125 "/></g></g></g><g fill="#1e90ff" fill-opacity="1"><g transform="translate(89.552171, 9.541152)"><g><path d="M 4.671875 -5.890625 C 4.671875 -5.890625 4.695312 -5.800781 4.75 -5.625 C 4.800781 -5.457031 4.863281 -5.234375 4.9375 -4.953125 C 5.019531 -4.679688 5.113281 -4.367188 5.21875 -4.015625 C 5.320312 -3.671875 5.425781 -3.3125 5.53125 -2.9375 C 5.644531 -2.5625 5.753906 -2.195312 5.859375 -1.84375 C 5.960938 -1.5 6.050781 -1.1875 6.125 -0.90625 C 6.207031 -0.632812 6.273438 -0.414062 6.328125 -0.25 C 6.378906 -0.0820312 6.40625 0 6.40625 0 L 3.953125 0 L 3.796875 -0.84375 L 2.6875 -0.84375 L 2.53125 0 L 0.078125 0 L 1.8125 -5.890625 Z M 2.953125 -2.1875 L 3.53125 -2.1875 L 3.25 -3.703125 Z M 3.828125 -6.484375 C 3.660156 -6.484375 3.519531 -6.519531 3.40625 -6.59375 C 3.300781 -6.664062 3.207031 -6.734375 3.125 -6.796875 C 3.050781 -6.867188 2.976562 -6.90625 2.90625 -6.90625 C 2.84375 -6.90625 2.785156 -6.875 2.734375 -6.8125 C 2.679688 -6.757812 2.65625 -6.675781 2.65625 -6.5625 L 1.890625 -6.5625 L 1.890625 -7.15625 C 1.890625 -7.40625 1.960938 -7.609375 2.109375 -7.765625 C 2.265625 -7.921875 2.445312 -8 2.65625 -8 C 2.820312 -8 2.960938 -7.960938 3.078125 -7.890625 C 3.191406 -7.828125 3.285156 -7.757812 3.359375 -7.6875 C 3.441406 -7.613281 3.515625 -7.578125 3.578125 -7.578125 C 3.640625 -7.578125 3.695312 -7.601562 3.75 -7.65625 C 3.800781 -7.71875 3.828125 -7.804688 3.828125 -7.921875 L 4.59375 -7.921875 L 4.59375 -7.328125 C 4.59375 -7.078125 4.519531 -6.875 4.375 -6.71875 C 4.226562 -6.5625 4.046875 -6.484375 3.828125 -6.484375 Z M 3.828125 -6.484375 "/></g></g></g><g fill="#1e90ff" fill-opacity="1"><g transform="translate(96.037162, 9.541152)"><g><path d="M 4.546875 -2.953125 C 4.546875 -3.242188 4.453125 -3.484375 4.265625 -3.671875 C 4.085938 -3.859375 3.875 -3.953125 3.625 -3.953125 C 3.375 -3.953125 3.15625 -3.859375 2.96875 -3.671875 C 2.78125 -3.484375 2.6875 -3.242188 2.6875 -2.953125 C 2.6875 -2.660156 2.78125 -2.414062 2.96875 -2.21875 C 3.15625 -2.03125 3.375 -1.9375 3.625 -1.9375 C 3.875 -1.9375 4.085938 -2.03125 4.265625 -2.21875 C 4.453125 -2.414062 4.546875 -2.660156 4.546875 -2.953125 Z M 6.90625 -2.953125 C 6.90625 -2.515625 6.820312 -2.109375 6.65625 -1.734375 C 6.5 -1.359375 6.273438 -1.03125 5.984375 -0.75 C 5.691406 -0.476562 5.34375 -0.265625 4.9375 -0.109375 C 4.539062 0.046875 4.101562 0.125 3.625 0.125 C 3.132812 0.125 2.6875 0.046875 2.28125 -0.109375 C 1.882812 -0.265625 1.539062 -0.476562 1.25 -0.75 C 0.957031 -1.03125 0.734375 -1.359375 0.578125 -1.734375 C 0.421875 -2.109375 0.34375 -2.515625 0.34375 -2.953125 C 0.34375 -3.378906 0.421875 -3.78125 0.578125 -4.15625 C 0.734375 -4.53125 0.957031 -4.851562 1.25 -5.125 C 1.539062 -5.40625 1.882812 -5.625 2.28125 -5.78125 C 2.6875 -5.9375 3.132812 -6.015625 3.625 -6.015625 C 4.101562 -6.015625 4.539062 -5.9375 4.9375 -5.78125 C 5.34375 -5.625 5.691406 -5.40625 5.984375 -5.125 C 6.273438 -4.851562 6.5 -4.53125 6.65625 -4.15625 C 6.820312 -3.78125 6.90625 -3.378906 6.90625 -2.953125 Z M 6.90625 -2.953125 "/></g></g></g></g></g></svg>